<?xml version="1.0" encoding="UTF-8"?><svg version="1.1" viewBox="0 0 100 100" xmlns="http://www.w3.org/2000/svg" xmlns:xlink="http://www.w3.org/1999/xlink"><!--Generated by IJSVG (https://github.com/iconjar/IJSVG)--><g stroke-linecap="round" stroke-width="1" stroke="#4550E5" fill="none" stroke-linejoin="round"><path d="M85.429,87.143h-70.858l2.24545e-07,4.91127e-11c-2.52466,-0.000552075 -4.571,-2.04734 -4.571,-4.572v-58.285l5.68434e-14,5.80991e-07c-3.81212e-07,-2.52466 2.04634,-4.57145 4.571,-4.572h70.858l-7.92166e-08,-1.7323e-11c2.52466,0.000552156 4.571,2.04734 4.571,4.572v58.285v1.09361e-07c0,2.52466 -2.04634,4.57145 -4.571,4.572Z"></path><path d="M90,54v28.571v1.09361e-07c0,2.52466 -2.04634,4.57145 -4.571,4.572h-32c0,0 18.285,-5.714 36.571,-33.143Z"></path><path d="M90,40.286h-80v-16l5.68434e-14,5.80991e-07c-3.81212e-07,-2.52466 2.04634,-4.57145 4.571,-4.572h70.858l-7.92166e-08,-1.73266e-11c2.52466,0.000552156 4.571,2.04734 4.571,4.572Z"></path><path d="M27.143,26.571l-2.99729e-07,-1.06581e-14c-3.78702,-1.65536e-07 -6.857,-3.06998 -6.857,-6.857c1.65536e-07,-3.78702 3.06998,-6.857 6.857,-6.857c3.78702,1.65536e-07 6.857,3.06998 6.857,6.857"></path><path d="M51.143,26.571l-2.99729e-07,-1.06581e-14c-3.78702,-1.65536e-07 -6.857,-3.06998 -6.857,-6.857c1.65536e-07,-3.78702 3.06998,-6.857 6.857,-6.857c3.78702,1.65536e-07 6.857,3.06998 6.857,6.857"></path><path d="M75.143,26.571l-2.99729e-07,-1.06581e-14c-3.78702,-1.65536e-07 -6.857,-3.06998 -6.857,-6.857c1.65536e-07,-3.78702 3.06998,-6.857 6.857,-6.857c3.78702,1.65536e-07 6.857,3.06998 6.857,6.857"></path><path d="M10,51.71h80"></path><path d="M10,63.14h47.81"></path><path d="M10,74.57h47.81"></path><path d="M26,40.29v46.85"></path><path d="M42,40.29v46.85"></path><path d="M58,40.29v15.5"></path><path d="M74,40.29v17.59"></path><path d="M10,51.714h16v11.429h-16Z"></path><path d="M26,74.571h16v12.571h-16Z"></path><path d="M42,40.286h16v11.429h-16Z"></path><path d="M90,54c-18.286,27.429 -36.571,33.143 -36.571,33.143l-7.12928e-07,1.2469e-06c5.26233,-9.2037 6.31604,-20.2249 2.893,-30.259l-4.88234e-08,-1.36744e-07c-0.175865,-0.492559 0.0808667,-1.03442 0.573426,-1.21029c0.17885,-0.0638573 0.372768,-0.0724667 0.556574,-0.0247104c5.278,1.439 21.202,4.969 32.548,-1.649Z"></path><path d="M38.57,33.43h22.86"></path><path d="M74,33.43h9.14"></path><path d="M26,33.43h-9.14"></path></g></svg>