<?xml version="1.0" encoding="UTF-8"?><svg version="1.1" viewBox="0 0 100 100" xmlns="http://www.w3.org/2000/svg" xmlns:xlink="http://www.w3.org/1999/xlink"><!--Generated by IJSVG (https://github.com/iconjar/IJSVG)--><g stroke-linecap="round" stroke-width="1" stroke="#4550E5" fill="none" stroke-linejoin="round"><path d="M32.09,15.21v-1.23"></path><path d="M34.66,16.28l0.86,-0.86"></path><path d="M35.73,18.87h1.21"></path><path d="M34.66,21.46l0.86,0.86"></path><path d="M32.09,22.53v1.22"></path><path d="M29.51,21.46l-0.85,0.86"></path><path d="M28.45,18.87h-1.21"></path><path d="M29.51,16.28l-0.85,-0.86"></path><path d="M67.97,46.49v-6.51"></path><path d="M64.73,43.24h6.47"></path><path d="M84.15,49.88v-3.25"></path><path d="M82.53,48.26h3.23"></path><path d="M18.15,51.85v-3.25"></path><path d="M16.53,50.22h3.23"></path></g><path fill="#4550E5" d="M85.292,72.2l-4.07798e-08,-2.50168e-10c-0.450104,-0.00276107 -0.817223,0.359882 -0.819984,0.809985c-0.00276107,0.450104 0.359882,0.817223 0.809985,0.819984c0.450104,0.00276107 0.817223,-0.359882 0.819984,-0.809985c1.22359e-05,-0.00199467 1.71489e-05,-0.00398937 1.47388e-05,-0.00598407l7.65866e-10,-3.10583e-07c0.00110575,-0.448454 -0.361542,-0.812894 -0.809995,-0.814c-1.64204e-06,-4.04879e-09 -3.28405e-06,-8.09251e-09 -4.92609e-06,-1.21314e-08Z"></path><g fill="#4550E5"><path d="M85.292,75.458l-1.87182e-08,-9.19727e-11c-0.449554,-0.00220913 -0.815781,0.360436 -0.81799,0.80999c-0.00220913,0.449554 0.360436,0.815781 0.80999,0.81799c0.449554,0.00220913 0.815781,-0.360436 0.81799,-0.80999c6.53591e-06,-0.00133005 9.81189e-06,-0.00266011 9.82792e-06,-0.00399017l-8.04766e-09,2.17431e-06c0.00165839,-0.4479 -0.360092,-0.812339 -0.807992,-0.813997c-0.000668718,-2.47599e-06 -0.00133744,-4.12488e-06 -0.00200616,-4.94666e-06Z"></path><path d="M85.292,78.714l2.53915e-08,1.24757e-10c-0.449554,-0.00220881 -0.815781,0.360436 -0.81799,0.809991c-0.00220881,0.449554 0.360436,0.815781 0.809991,0.81799c0.449554,0.00220881 0.815781,-0.360436 0.81799,-0.809991c4.89618e-06,-0.00099651 7.96242e-06,-0.00199303 9.1987e-06,-0.00298955l6.17402e-09,-1.25177e-06c0.00220878,-0.447897 -0.359093,-0.812781 -0.806991,-0.814989c-0.00100348,-4.94863e-06 -0.00200698,-8.03475e-06 -0.00301047,-9.25834e-06Z"></path><path d="M85.292,81.97l-1.87182e-08,-9.19727e-11c-0.449554,-0.00220913 -0.815781,0.360436 -0.81799,0.80999c-0.00220913,0.449554 0.360436,0.815781 0.80999,0.81799c0.449554,0.00220913 0.815781,-0.360436 0.81799,-0.80999c6.53591e-06,-0.00133005 9.81189e-06,-0.00266011 9.82792e-06,-0.00399017l7.65866e-10,-3.10583e-07c0.00110575,-0.448454 -0.361542,-0.812894 -0.809995,-0.814c-1.64204e-06,-4.04879e-09 -3.28405e-06,-8.09251e-09 -4.92609e-06,-1.21314e-08Z"></path></g><path fill="none" stroke="#4550E5" stroke-linecap="round" stroke-linejoin="round" stroke-width="1" d="M56.98,82.78h7.28"></path><g stroke-linecap="round" stroke-width="1" stroke="#4550E5" fill="none" stroke-linejoin="round"><path d="M73.97,82.78h5.66"></path><path d="M56.98,74.64h7.28"></path><path d="M56.98,77.9h15.37"></path><path d="M95,66.5l-3.14505e-09,1.01852e-06c0.00276691,-0.895971 -0.72103,-1.62469 -1.617,-1.628h-5.812l2.9695e-09,-8.68509e-09c-0.430251,1.25838 -1.79916,1.92971 -3.05754,1.49946c-0.704841,-0.240991 -1.25847,-0.79462 -1.49946,-1.49946h-28.464l4.06252e-08,-1.49996e-10c-0.895969,0.003308 -1.61977,0.732029 -1.617,1.628v3.26h42.067v-3.26Z"></path><path d="M87.571,64.875l2.9695e-09,-8.68509e-09c-0.430251,1.25838 -1.79916,1.92971 -3.05754,1.49946c-0.704841,-0.240991 -1.25847,-0.79462 -1.49946,-1.49946h-28.464l-4.76281e-08,1.76044e-10c-0.894795,0.00330729 -1.61811,0.730199 -1.617,1.625v19.54l3.07212e-09,-9.94909e-07c-0.0027669,0.895971 0.72103,1.62469 1.617,1.628h28.464l-4.78581e-08,1.39973e-07c0.430251,-1.25838 1.79916,-1.92971 3.05754,-1.49946c0.704841,0.240991 1.25847,0.79462 1.49946,1.49946h5.812l5.84165e-08,-2.15678e-10c0.895969,-0.00330803 1.61977,-0.732029 1.617,-1.628v-19.54l-3.14505e-09,1.01852e-06c0.00276691,-0.895971 -0.72103,-1.62469 -1.617,-1.628Z"></path><path d="M9.31557,41.3681c0.987245,0.993494 0.987245,2.60427 0,3.59776c-0.987245,0.993494 -2.58789,0.993494 -3.57513,0c-0.987245,-0.993494 -0.987245,-2.60427 -8.88178e-16,-3.59776c0.987245,-0.993494 2.58789,-0.993494 3.57513,-7.10543e-15"></path><path d="M10.056,43.167v-11.447l3.792,2.544"></path><path d="M59.256,31.31l-3.35782e-08,5.63451e-06c-0.00994432,1.66842 -1.37053,3.01288 -3.03895,3.00294c-1.66842,-0.00994432 -3.01288,-1.37053 -3.00294,-3.03895c0.00990465,-1.66177 1.3601,-3.00352 3.0219,-3.00299l-1.82862e-08,-6.03002e-11c1.67303,0.00551728 3.02497,1.36597 3.01999,3.039Z"></path><path d="M74.356,28.271l7.72305e-09,-1.22756e-06c-0.0104928,1.66787 -1.37107,3.01143 -3.03894,3.00094c-1.66787,-0.0104928 -3.01143,-1.37107 -3.00094,-3.03894c0.0104485,-1.66082 1.36003,-3.00152 3.02088,-3.001l1.59595e-07,5.78623e-10c1.67264,0.00606435 3.02398,1.36635 3.019,3.039Z"></path><path d="M59.256,31.31v-12.574l-7.23014e-08,-4.42726e-05c-0.00107535,-0.664006 0.401463,-1.26204 1.01704,-1.51097l11.865,-4.777l8.33758e-08,-3.35369e-08c0.498205,-0.200397 1.06356,-0.138872 1.507,0.164l-7.37784e-08,-5.03996e-08c0.445265,0.30417 0.71141,0.808759 0.711,1.348v14.311"></path><path d="M89.472,39.843l7.35879e-09,-1.48844e-06c-0.00441746,0.893586 -0.732393,1.6144 -1.62598,1.60998c-0.893586,-0.00441746 -1.6144,-0.732393 -1.60998,-1.62598c0.00440198,-0.890456 0.727493,-1.60999 1.61796,-1.61l-3.70219e-08,-9.11555e-11c0.895803,0.00220557 1.62021,0.730185 1.618,1.62599c-9.31428e-09,3.78305e-06 -1.86417e-08,7.56605e-06 -2.79824e-08,1.13491e-05Z"></path><path d="M89.472,39.843v-7.326l2.427,1.628"></path><path d="M33.83,36.65v8.1"></path><path d="M44.28,66.278c0,-5.526 3.905,-8 12.442,-18.626c0.733,-0.911 1.423,-2.585 0.528,-3.772l-3.79327e-08,-5.0042e-08c-0.897918,-1.18456 -2.5844,-1.42057 -3.773,-0.528l-5.038,3.918l6.93626e-08,-5.19658e-08c-1.0608,0.79474 -2.56501,0.579057 -3.35975,-0.481741c-0.310129,-0.413952 -0.478226,-0.91702 -0.479249,-1.43426l3.418,-20.988l-9.05822e-09,4.65952e-08c0.283874,-1.46024 -0.669759,-2.87413 -2.13,-3.158c-1.46024,-0.283874 -2.87413,0.669759 -3.158,2.13c0,0 -7.6592e-09,3.93987e-08 -7.6592e-09,3.93987e-08l-3.469,21.241c-0.008,0.041 -0.006,0.08 -0.011,0.12h-0.039v-10.072v0c0,-1.4873 -1.2057,-2.693 -2.693,-2.693c-1.4873,0 -2.693,1.2057 -2.693,2.693v2.02l-3.02818e-08,1.57149e-06c0.0286652,-1.48758 -1.15402,-2.71674 -2.6416,-2.7454c-1.48758,-0.0286652 -2.71674,1.15402 -2.7454,2.6416c-0.000666687,0.0345977 -0.000666707,0.069205 -6.05626e-08,0.103803l0.674,7.432"></path><path d="M29.448,45.2l-3.515,-15.919l4.10472e-08,1.44376e-07c-0.406758,-1.43069 -1.89631,-2.26076 -3.327,-1.854c-1.43069,0.406758 -2.26076,1.89631 -1.854,3.327l4.12,17.8l8.58116e-08,2.99634e-07c0.132795,0.46369 0.200114,0.943669 0.2,1.426c0,12.359 2.439,11.91 3.7,17.912v1.347"></path><path d="M45.772,73.492l-4.14757e-08,2.17024e-08c0.274108,-0.143429 0.610891,-0.0792202 0.813,0.155l1.126,1.289l5.58038e-09,6.38471e-09c0.224,0.256286 0.224,0.638714 -1.11608e-08,0.895l-1.126,1.288l2.71062e-08,-3.14204e-08c-0.12673,0.1469 -0.31099,0.23155 -0.505,0.232"></path><path d="M26.976,77.351l-2.7109e-08,-5.55502e-11c-0.194593,-0.000398747 -0.379488,-0.0850056 -0.507,-0.232l-1.125,-1.288l8.64408e-09,9.88999e-09c-0.224,-0.256286 -0.224,-0.638714 -1.72882e-08,-0.895l1.125,-1.289l-2.88402e-08,3.29801e-08c0.127936,-0.146301 0.312651,-0.230461 0.507,-0.231l4.00693e-10,8.10019e-13c0.115005,0.000237804 0.227995,0.0302077 0.328,0.087"></path><path d="M27.426,79.536v-6.784l-4.25403e-08,5.96914e-05c0.000514707,-0.745292 0.603652,-1.34982 1.34894,-1.35206h15.5051l-4.33767e-08,-1.2804e-10c0.746686,0.002204 1.35021,0.609299 1.348,1.35598c-9.98816e-07,0.000338386 -2.12467e-06,0.000676772 -3.37757e-06,0.00101516v6.784"></path><path d="M32.059,77.119l1.10694e-08,-1.28435e-08c-0.240854,0.279456 -0.662649,0.310749 -0.942105,0.0698945c-0.0249923,-0.0215401 -0.0483544,-0.0449022 -0.0698945,-0.0698945l-1.125,-1.288l8.64408e-09,9.88999e-09c-0.224,-0.256286 -0.224,-0.638714 -1.72882e-08,-0.895l1.125,-1.289l1.39301e-08,-1.60501e-08c0.242543,-0.279456 0.665707,-0.30938 0.945163,-0.0668371c0.0238248,0.0206778 0.0461594,0.0430124 0.0668372,0.0668372l1.126,1.289l5.52873e-09,6.35839e-09c0.223129,0.256613 0.223129,0.638387 -1.10575e-08,0.895Z"></path><path d="M40.291,77.119l2.15927e-08,-2.50236e-08c-0.24138,0.279732 -0.663825,0.310823 -0.943557,0.0694431c-0.0248177,-0.0214151 -0.048028,-0.0446253 -0.0694431,-0.0694431l-1.125,-1.288l8.64408e-09,9.88999e-09c-0.224,-0.256286 -0.224,-0.638714 -1.72882e-08,-0.895l1.125,-1.289l1.78493e-09,-2.05418e-09c0.243067,-0.279732 0.66688,-0.309455 0.946612,-0.0663878c0.0236522,0.0205521 0.0458357,0.0427356 0.0663878,0.0663878l1.125,1.289l5.58038e-09,6.38471e-09c0.224,0.256286 0.224,0.638714 -1.11608e-08,0.895Z"></path><path d="M28.775,69.244v2.156"></path><path d="M44.28,71.4v-5.122"></path></g></svg>