<?xml version="1.0" encoding="UTF-8"?><svg version="1.1" viewBox="0 0 100 100" xmlns="http://www.w3.org/2000/svg" xmlns:xlink="http://www.w3.org/1999/xlink"><!--Generated by IJSVG (https://github.com/iconjar/IJSVG)--><g stroke-linecap="round" stroke-width="1" stroke="#4550E5" fill="none" stroke-linejoin="round"><path d="M72.8,19.031l-3.75918e-07,7.10543e-15c4.74965,-2.07614e-07 8.6,3.85035 8.6,8.6c2.07614e-07,4.74965 -3.85035,8.6 -8.6,8.6c-4.74965,2.07614e-07 -8.6,-3.85035 -8.6,-8.6l9.9476e-14,9.22646e-07c-7.17177e-07,-4.74965 3.85035,-8.6 8.6,-8.6c1.16496e-07,-1.77636e-14 2.59421e-07,-3.55271e-14 3.75918e-07,-4.9738e-14Z"></path><path d="M81.4,41.4l-3.75918e-07,7.10543e-15c4.74965,-2.07614e-07 8.6,3.85035 8.6,8.6c2.07614e-07,4.74965 -3.85035,8.6 -8.6,8.6c-4.74965,2.07614e-07 -8.6,-3.85035 -8.6,-8.6l7.10543e-14,9.22646e-07c-7.17177e-07,-4.74965 3.85035,-8.6 8.6,-8.6c1.16496e-07,-1.42109e-14 2.59422e-07,-3.55271e-14 3.75918e-07,-4.9738e-14Z"></path><path d="M27.2,19.031l-3.75918e-07,1.06581e-14c4.74965,-2.07614e-07 8.6,3.85035 8.6,8.6c2.07614e-07,4.74965 -3.85035,8.6 -8.6,8.6c-4.74965,2.07614e-07 -8.6,-3.85035 -8.6,-8.6l9.23706e-14,9.22646e-07c-7.17177e-07,-4.74965 3.85035,-8.6 8.6,-8.6c1.16496e-07,-1.77636e-14 2.59421e-07,-3.55271e-14 3.75918e-07,-4.61853e-14Z"></path><path d="M18.6,41.612l-3.75918e-07,7.10543e-15c4.74965,-2.07614e-07 8.6,3.85035 8.6,8.6c2.07614e-07,4.74965 -3.85035,8.6 -8.6,8.6c-4.74965,2.07614e-07 -8.6,-3.85035 -8.6,-8.6l8.88178e-14,9.22646e-07c-7.17177e-07,-4.74965 3.85035,-8.6 8.6,-8.6c1.16496e-07,-2.13163e-14 2.59421e-07,-3.55271e-14 3.75918e-07,-4.9738e-14Z"></path><path d="M50,10l-3.75918e-07,1.06581e-14c4.74965,-2.07614e-07 8.6,3.85035 8.6,8.6c2.07614e-07,4.74965 -3.85035,8.6 -8.6,8.6c-4.74965,2.07614e-07 -8.6,-3.85035 -8.6,-8.6l9.23706e-14,9.22646e-07c-7.17177e-07,-4.74965 3.85035,-8.6 8.6,-8.6c1.16496e-07,-1.77636e-14 2.59421e-07,-3.55271e-14 3.75918e-07,-4.79616e-14Z"></path><path d="M72.8,63.763l-3.75918e-07,7.10543e-15c4.74965,-2.07614e-07 8.6,3.85035 8.6,8.6c2.07614e-07,4.74965 -3.85035,8.6 -8.6,8.6c-4.74965,2.07614e-07 -8.6,-3.85035 -8.6,-8.6l9.9476e-14,9.22646e-07c-7.17177e-07,-4.74965 3.85035,-8.6 8.6,-8.6c1.16496e-07,-2.13163e-14 2.59421e-07,-3.55271e-14 3.75918e-07,-4.9738e-14Z"></path><path d="M27.2,63.763l-3.75918e-07,7.10543e-15c4.74965,-2.07614e-07 8.6,3.85035 8.6,8.6c2.07614e-07,4.74965 -3.85035,8.6 -8.6,8.6c-4.74965,2.07614e-07 -8.6,-3.85035 -8.6,-8.6l9.23706e-14,9.22646e-07c-7.17177e-07,-4.74965 3.85035,-8.6 8.6,-8.6c1.16496e-07,-2.13163e-14 2.59421e-07,-3.55271e-14 3.75918e-07,-4.9738e-14Z"></path><path d="M50,72.8h-3.75918e-07c4.74965,-2.07614e-07 8.6,3.85035 8.6,8.6c2.07614e-07,4.74965 -3.85035,8.6 -8.6,8.6c-4.74965,2.07614e-07 -8.6,-3.85035 -8.6,-8.6l9.23706e-14,9.22646e-07c-7.17177e-07,-4.74965 3.85035,-8.6 8.6,-8.6c1.16496e-07,-1.42109e-14 2.59421e-07,-2.84217e-14 3.75918e-07,-4.26326e-14Z"></path><path d="M45.268,15.914l-4.32057e-07,3.33657e-07c2.78745,-2.15261 6.67655,-2.15261 9.464,-6.67313e-07"></path><path d="M46.429,17.741l1.37646e-07,-1.14303e-07c2.07116,-1.71992 5.07384,-1.71992 7.145,2.28607e-07"></path><path d="M47.419,19.767l-2.97439e-07,3.37114e-07c1.25768,-1.42545 3.43279,-1.56145 4.85824,-0.303765c0.107481,0.0948311 0.208933,0.196283 0.303764,0.303764"></path><path d="M57.743,43.835v-4.158l1.42033e-08,1.23264e-05c-0.000544263,-0.475289 -0.385699,-0.860454 -0.860988,-0.861012h-1.72l-5.11199e-08,5.9373e-11c-0.475127,0.00055186 -0.86,0.385873 -0.86,0.861v1.566"></path><path d="M50,40.966l-8.175,7.048v9.727l-1.56125e-08,-1.3542e-05c0.000544485,0.475517 0.386468,0.860558 0.861985,0.860014c3.87195e-07,-4.4335e-10 7.74244e-07,-8.868e-10 1.16144e-06,-1.33068e-09h14.626l4.26999e-08,-4.95604e-11c0.474736,-0.000551082 0.859449,-0.385264 0.86,-0.86v-9.727Z"></path><path d="M50.43,58.6h-6.88v-0.86l-3.0981e-08,-1.33313e-05c-0.00109753,-0.473859 0.382151,-0.858887 0.85601,-0.859985c0.00100097,-2.3184e-06 0.00200195,-2.88515e-06 0.00300292,-1.70024e-06h5.16099l-1.25895e-08,1.46656e-11c0.474412,-0.000552614 0.859447,0.383587 0.86,0.857999c7.77011e-07,0.000667055 7.77021e-07,0.00133411 2.93312e-11,0.00200117Z"></path><path d="M49.57,56.881h-5.161v-3.871l-2.39885e-08,1.21854e-06c0.028056,-1.42517 1.20613,-2.55776 2.6313,-2.5297c1.38566,0.0272781 2.50242,1.14404 2.5297,2.5297Z"></path><path d="M47.85,54.73v-0.86"></path><path d="M50,44.408l-9.44617e-09,-5.48539e-12c0.950482,0.00055244 1.72055,0.771518 1.72,1.722c-0.00055244,0.950482 -0.771518,1.72055 -1.722,1.72c-0.950482,-0.00055244 -1.72055,-0.771518 -1.72,-1.722l1.50709e-08,2.55143e-05c-0.000567827,-0.949377 0.768594,-1.71946 1.71797,-1.72003c0.00133431,-7.98056e-07 0.00266861,-4.25542e-08 0.00400292,2.2665e-06Z"></path><path d="M56.023,54.3l1.68589e-08,-1.46139e-05c-0.000543892,0.474965 -0.38602,0.859559 -0.860984,0.859015c-3.87543e-07,-4.43784e-10 -7.75247e-07,-8.88015e-10 -1.16279e-06,-1.33232e-09h-1.72l-4.97293e-08,1.15783e-10c-0.474411,0.00110454 -0.859893,-0.382586 -0.860998,-0.856998c-1.55396e-06,-0.000667442 -2.33002e-06,-0.00133488 -2.32817e-06,-0.00200233v-2.58l-1.62876e-08,-1.41233e-05c-0.000544485,-0.475517 0.384497,-0.861441 0.860014,-0.861985c0.000333527,-3.81901e-07 0.000667054,-5.70003e-07 0.00100058,-5.64307e-07h1.72l2.98888e-08,-2.84217e-14c0.475517,-3.04216e-07 0.861,0.385482 0.861001,0.860999c2.13376e-10,0.000333527 -1.93372e-07,0.000667054 -5.80755e-07,0.00100058Z"></path><path d="M60.3,46.43l-9.741,-8.418l-4.09737e-08,-3.5319e-08c-0.322668,-0.278138 -0.800332,-0.278138 -1.123,7.06381e-08l-9.736,8.418l-7.70345e-08,5.75599e-08c-0.575149,0.429749 -0.693019,1.24438 -0.263269,1.81953c0.429749,0.575149 1.24438,0.693019 1.81953,0.263269c0.0508985,-0.0380312 0.0989403,-0.0797427 0.143739,-0.124799l8.6,-7.422l8.6,7.422l1.55584e-08,1.35659e-08c0.261098,0.22766 0.602575,0.341125 0.948,0.315l2.79835e-08,-2.05458e-09c0.713289,-0.0523704 1.24907,-0.67306 1.1967,-1.38635c-0.025195,-0.343158 -0.18592,-0.662181 -0.446699,-0.886651Z"></path><path d="M50,27.2v8.18"></path><path d="M66.12,33.88l-5.78,5.78"></path><path d="M72.8,50h-8.18"></path><path d="M66.12,66.12l-5.78,-5.78"></path><path d="M50,72.8v-8.18"></path><path d="M33.88,66.12l5.78,-5.78"></path><path d="M27.2,50h8.18"></path><path d="M33.88,33.88l5.78,5.78"></path><path d="M84.607,49.323l1.16325e-07,-0.000162497c0.00122344,-1.77173 -1.43405,-3.20899 -3.20578,-3.21021c-1.77173,-0.00122344 -3.20899,1.43405 -3.21021,3.20578c-0.00052302,0.757413 0.266963,1.49058 0.755103,2.06972l1.16555e-08,1.38355e-08c0.43317,0.514189 0.671126,1.16467 0.672,1.837v0.374876h3.563v-0.374l-1.27219e-07,-0.000851276c-1.01495e-07,-0.672169 0.237493,-1.32272 0.670548,-1.8368l1.37859e-07,-1.62797e-07c0.488705,-0.577112 0.756416,-1.30912 0.755347,-2.06535Z"></path><path d="M82.467,55.026h-2.137l-1.14076e-08,-1.60014e-11c-0.393388,-0.000551744 -0.712,-0.319611 -0.712,-0.713v-0.713h3.563v0.714l2.03083e-08,-1.45966e-05c-0.000543835,0.393779 -0.320205,0.712558 -0.713984,0.712015c-4.67557e-07,-6.45727e-10 -9.34966e-07,-1.29171e-09 -1.40252e-06,-1.93836e-09Z"></path><path d="M82.467,55.382l9.77924e-09,3.19627e-07c0.018055,0.590116 -0.445692,1.08314 -1.03581,1.10119c-0.590116,0.018055 -1.08314,-0.445692 -1.10119,-1.03581c-0.00066666,-0.0217894 -0.000666654,-0.0435941 1.95586e-08,-0.0653835v-0.356h2.137Z"></path><path d="M81.4,44.69v-0.71"></path><path d="M84.68,46.05l0.5,-0.51"></path><path d="M86.03,49.32h0.71"></path><path d="M78.12,46.05l-0.5,-0.51"></path><path d="M76.77,49.32h-0.72"></path><path d="M77.166,72.58l2.01488e-08,1.97724e-06c-0.00467002,-0.458287 -0.0833502,-0.91281 -0.232999,-1.346l0.666,-0.4l2.43227e-08,-1.47679e-08c0.377675,-0.229311 0.500331,-0.719938 0.275,-1.1l-0.169,-0.281l-1.50247e-08,-2.48458e-08c-0.110168,-0.182181 -0.287633,-0.313663 -0.494,-0.366l3.30753e-08,8.27707e-09c-0.207143,-0.0518374 -0.426413,-0.0187128 -0.609,0.092l-0.656,0.393l-1.71443e-07,-1.78835e-07c-0.586584,-0.611875 -1.33961,-1.03845 -2.166,-1.227v-0.763v0c0,-0.441828 -0.358172,-0.8 -0.8,-0.8h-0.327l4.67656e-08,2.92289e-10c-0.441819,-0.00276145 -0.802223,0.353165 -0.804984,0.794984c-1.04494e-05,0.00167185 -1.56579e-05,0.00334374 -1.56253e-05,0.00501563v0.763l-8.60305e-08,1.97259e-08c-0.826323,0.189467 -1.57942,0.615887 -2.167,1.227l-0.656,-0.393l-6.52524e-09,-3.95281e-09c-0.182317,-0.110443 -0.40117,-0.143559 -0.608,-0.092l-6.95677e-09,1.77553e-09c-0.206227,0.052634 -0.383589,0.18404 -0.494,0.366l-0.17,0.281l-3.4988e-08,5.9266e-08c-0.224575,0.380406 -0.101562,0.870676 0.276,1.1l0.666,0.4l-1.26441e-07,3.54391e-07c-0.310682,0.870785 -0.310682,1.82222 2.52883e-07,2.693l-0.666,0.4l3.5417e-09,-2.15711e-09c-0.377093,0.22967 -0.499998,0.719511 -0.276,1.1l0.17,0.281l-5.07101e-08,-8.34404e-08c0.110444,0.181728 0.287848,0.312806 0.494,0.365l-4.06254e-08,-1.01922e-08c0.206698,0.0518567 0.425543,0.0191019 0.608,-0.091l0.656,-0.392l2.91427e-07,3.02439e-07c0.587978,0.610195 1.34099,1.03587 2.167,1.225v0.764l-1.52582e-10,1.55044e-05c-6.67141e-08,0.441828 0.358172,0.8 0.8,0.8c0.00167189,2.52442e-10 0.00334377,-5.24051e-06 0.00501563,-1.57222e-05h0.327h-3.49691e-08c0.441828,1.93129e-08 0.8,-0.358172 0.8,-0.8v-0.764l4.36958e-08,-9.95567e-09c0.826073,-0.188212 1.57901,-0.614044 2.166,-1.225l0.656,0.392l7.76069e-10,4.68646e-10c0.378217,0.228393 0.869972,0.106936 1.09837,-0.271281c0.000546653,-0.000905253 0.00109151,-0.00181159 0.00163457,-0.002719l0.169,-0.281l-5.40054e-09,9.13448e-09c0.224752,-0.380147 0.102203,-0.870342 -0.275,-1.1l-0.666,-0.4l6.59173e-08,-1.89481e-07c0.150754,-0.433345 0.230444,-0.888217 0.235984,-1.347Zm-4.354,1.936l-7.51329e-08,3.88098e-11c-1.06922,0.000552243 -1.93645,-0.865777 -1.937,-1.935c-0.000552243,-1.06922 0.865777,-1.93645 1.935,-1.937c1.06922,-0.000552243 1.93645,0.865777 1.937,1.935c1.72119e-07,0.000333247 2.58194e-07,0.000666494 2.58226e-07,0.000999742l2.84217e-14,1.83132e-07c0,1.06883 -0.866167,1.93545 -1.935,1.936Z"></path><path d="M76.239,29.785v0c0,1.90096 -1.54104,3.442 -3.442,3.442c-1.90096,0 -3.442,-1.54104 -3.442,-3.442c0,-1.9 3.442,-8.173 3.442,-8.173c0,0 3.442,6.272 3.442,8.173Z"></path><path d="M50,20.752l5.51244e-08,4.27178e-11c0.712999,0.000552529 1.29055,0.579001 1.29,1.292c-0.000552529,0.712999 -0.579001,1.29055 -1.292,1.29c-0.712999,-0.000552529 -1.29055,-0.579 -1.29,-1.292l-8.45546e-13,-1.30048e-06c-1.07577e-07,-0.712447 0.577552,-1.29 1.29,-1.29c0.000667165,-1.00741e-10 0.00133433,5.17368e-07 0.0020015,1.55241e-06Z"></path></g><path fill="none" stroke="#4550E5" stroke-linecap="round" stroke-width="1" d="M31.018,23.57l-2.718,-1.814l4.53825e-09,3.02007e-09c-0.395873,-0.263441 -0.930353,-0.156083 -1.19379,0.23979c-0.0936991,0.140802 -0.143855,0.306081 -0.144207,0.47521v5.671l-1.45146e-07,-5.71282e-08c-0.303623,-0.119503 -0.626712,-0.181884 -0.953,-0.184l-4.55147e-08,-6.59348e-11c-1.47681,-0.00213929 -2.67573,1.19332 -2.67787,2.67012c-0.00213929,1.47681 1.19332,2.67573 2.67012,2.67787c1.46817,0.00212678 2.66347,-1.17989 2.67775,-2.64799v-0.014v-6.564l1.384,0.92l2.95523e-08,2.10076e-08c0.387571,0.275509 0.925104,0.184665 1.20061,-0.202906c0.275509,-0.387571 0.184665,-0.925104 -0.202906,-1.20061c-0.0139488,-0.00991564 -0.0281901,-0.0194132 -0.042705,-0.02848Z"></path><g stroke-linecap="round" stroke-width="1" stroke="#4550E5" fill="none" stroke-linejoin="round"><path d="M26.648,68.531l-1.14052e-08,3.85676e-07c0.0238153,-0.805334 0.324746,-1.57779 0.852,-2.187c-5.721,3.525 -6.237,10.75 -1.3,11.921c2.4,0.569 5.37,-0.847 5.37,-3.312c0.00100025,-4.453 -4.922,-3.161 -4.922,-6.422Z"></path><path d="M27.206,73.938l-1.31112e-07,1.5404e-09c-0.215709,0.00253432 -0.429921,0.0362154 -0.635999,0.0999998l7.75199e-08,1.42389e-07c0.290837,0.534211 0.384301,1.15377 0.264,1.75l-4.1796e-09,-6.49911e-09c-0.331805,-0.515943 -0.919232,-0.809082 -1.531,-0.764l-1.10661e-07,1.81351e-07c-0.208843,0.342251 -0.320187,0.735066 -0.322,1.136l2.85271e-08,3.14709e-05c0.00112207,1.22828 0.99775,2.22309 2.22603,2.22197c1.22828,-0.00112207 2.22309,-0.99775 2.22197,-2.22603c-0.001121,-1.22711 -0.99592,-2.22143 -2.22303,-2.22197Z"></path><path d="M22.9,52.466l-1.36555e-08,-4.09634e-05c0.000208803,0.604757 -0.317201,1.16519 -0.835965,1.47602l-3.46404,2.07802l-3.467,-2.078l-3.74768e-08,-2.26068e-08c-0.517269,-0.312027 -0.833624,-0.871908 -0.834,-1.476v-7.627l-2.49957e-07,-2.37691e-07c1.20451,1.1454 3.09549,1.1454 4.3,4.75381e-07l-1.22622e-07,-1.16534e-07c1.20471,1.14489 3.09529,1.14489 4.3,2.33067e-07Z"></path><path d="M16.881,50.859l1.29,1.291l3.012,-3.441"></path><path d="M50.8,76.378l-6.65487e-09,2.2224e-08c0.0703422,-0.234909 -0.0630653,-0.482363 -0.297974,-0.552706c-0.167402,-0.0501277 -0.34864,0.00259881 -0.463026,0.134706l-3.612,5.7l1.49864e-08,-1.73379e-08c-0.160717,0.185934 -0.140274,0.46695 0.0456602,0.627666c0.0804135,0.0695074 0.18305,0.107936 0.28934,0.108334h2.438l2.64105e-08,1.66693e-11c0.245767,0.000155238 0.444874,0.199514 0.444719,0.445281c-2.79894e-05,0.0443118 -0.00667427,0.0883708 -0.0197189,0.130719l-1.06,3.444l1.00238e-08,-3.23519e-08c-0.072573,0.234229 0.0584751,0.482941 0.292704,0.555514c0.188198,0.0583108 0.392313,-0.0143759 0.501296,-0.178514l4.249,-6.372l1.56541e-08,-2.35969e-08c0.135862,-0.204799 0.0799783,-0.48096 -0.124821,-0.616822c-0.0726897,-0.0482219 -0.157949,-0.0740166 -0.245179,-0.0741777h-2.838l-6.88494e-09,-2.31637e-12c-0.245214,-8.2503e-05 -0.443933,-0.198935 -0.443851,-0.444149c1.45711e-05,-0.0433082 0.00636536,-0.0863812 0.0188506,-0.127851Z"></path></g></svg>