<?xml version="1.0" encoding="UTF-8"?><svg version="1.1" viewBox="0 0 100 100" xmlns="http://www.w3.org/2000/svg" xmlns:xlink="http://www.w3.org/1999/xlink"><!--Generated by IJSVG (https://github.com/iconjar/IJSVG)--><g stroke-linecap="round" stroke-width="1" stroke="#4550E5" fill="none" stroke-linejoin="round"><path d="M48.25,92.93l-0.01,-3.42"></path><path d="M53.252,72.5l4.69448e-07,-1.89827e-07c-7.89268,3.1915 -13.0571,10.8555 -13.052,19.369v1.154"></path><path d="M81.638,93.023v-1.154l-7.19194e-08,0.00014837c0.00417903,-8.55866 -5.2146,-16.2534 -13.1679,-19.4151"></path><path d="M73.59,92.93l0.01,-3.42"></path><path d="M68.56,73.593l3.12509e-07,1.73015e-06c-0.31266,-1.73099 -1.34094,-3.24981 -2.832,-4.183h-0.15v4.546l2.89566e-08,-1.82206e-05c-0.000685962,0.433546 -0.217455,0.838218 -0.577987,1.07901l-4.1,2.7l-4.1,-2.7l8.43361e-08,5.63243e-08c-0.360829,-0.240982 -0.577642,-0.646099 -0.578,-1.08v-4.54599h-0.149l-3.17959e-07,1.98903e-07c-1.49132,0.932912 -2.51969,2.45186 -2.832,4.183l-1.039,7.272l1.57679e-08,-1.12328e-07c-0.0426862,0.304089 0.169223,0.585206 0.473311,0.627892c0.106571,0.0149598 0.215193,-0.00132953 0.312688,-0.0468918l7.91199,-3.708l7.91,3.709l-5.85606e-08,-2.74525e-08c0.277535,0.130105 0.607994,0.0105896 0.738099,-0.266946c0.0458863,-0.0978828 0.0621873,-0.207036 0.0469012,-0.314054Z"></path><path d="M60.949,69.291l1.80504e-07,-1.35657e-10c-1.61255,0.00121194 -3.212,-0.289474 -4.721,-0.857999v5.522l-5.44416e-08,-6.81903e-05c0.000335036,0.4339 0.217127,0.83903 0.577943,1.08003l4.1,2.7l4.1,-2.7l-4.99726e-08,3.33744e-08c0.360829,-0.240982 0.577642,-0.646099 0.578,-1.08v-5.49196l-3.52025e-07,1.30121e-07c-1.48372,0.548437 -3.05311,0.828797 -4.63495,0.828Z"></path><path d="M30.748,19.7l-4.54679e-07,2.8939e-10c-0.334226,0.000212736 -0.668146,0.0202479 -1,0.0600001"></path><path stroke-dasharray="2.011 3.016" d="M26.882,20.657l-5.81349e-07,3.06658e-07c-2.71858,1.43403 -4.4197,4.25538 -4.419,7.329v4.143l9.59233e-14,1.08821e-06c6.90908e-07,4.57568 3.70932,8.285 8.285,8.285c4.57568,-6.90908e-07 8.285,-3.70932 8.285,-8.285v-4.143l8.46799e-08,0.00118483c0,-3.62443 -2.3548,-6.82856 -5.81387,-7.91083"></path><path d="M31.747,19.761l-5.41938e-08,-6.49176e-09c-0.331854,-0.0397521 -0.665774,-0.0597873 -1,-0.06"></path><path d="M35.9,41.133c0.320667,0.092 0.638333,0.192 0.953,0.3"></path><path stroke-dasharray="1.735 2.602" d="M39.241,42.457l4.02123e-07,2.06448e-07c0.903698,0.463954 1.76791,1.00108 2.584,1.606"></path><path d="M42.837,44.868c0.253333,0.216667 0.501,0.44 0.743,0.67"></path><path d="M30.748,58.473c-0.333333,0 -0.666667,-0.00633333 -1,-0.019"></path><path stroke-dasharray="1.871 2.806" d="M26.953,58.2l2.94229e-07,4.36018e-08c-4.18849,-0.620692 -8.15784,-2.26986 -11.553,-4.8"></path><path d="M14.3,52.536c-0.256,-0.213333 -0.508,-0.431333 -0.756,-0.654c0.128,-0.308 0.264667,-0.612 0.41,-0.912"></path><path stroke-dasharray="2.272 3.408" d="M15.7,48.053l-8.51338e-07,1.16387e-06c1.91118,-2.61279 4.4679,-4.68469 7.42,-6.013"></path><path d="M24.714,41.412c0.315333,-0.108 0.633667,-0.208 0.955,-0.3"></path><path d="M41.274,56.23l1.48117e-07,-6.63038e-08c-12.9807,5.81073 -28.2141,-0.00163534 -34.0248,-12.9823c-5.81073,-12.9807 0.00163534,-28.2141 12.9823,-34.0248c12.9807,-5.81073 28.2141,0.00163534 34.0248,12.9823c0.93832,2.09612 1.59202,4.30835 1.94371,6.57782"></path><path d="M47.525,52.511h1.1965e-07c-1.48288,-1.11955e-07 -2.685,1.20212 -2.685,2.685c-1.11955e-07,1.48288 1.20212,2.685 2.685,2.685c5.17534e-08,0 1.13211e-07,7.10543e-15 1.64964e-07,7.10543e-15c0.056,0 0.109,-0.014 0.164,-0.017l-1.2931e-07,-8.67495e-07c1.09158,7.32302 7.91297,12.3746 15.236,11.283c5.8335,-0.869552 10.4135,-5.44951 11.283,-11.283c0.055,0 0.108,0.017 0.164,0.017h-3.43036e-08c1.48288,6.48189e-08 2.685,-1.20212 2.685,-2.685c6.48189e-08,-1.48288 -1.20212,-2.685 -2.685,-2.685c-5.17534e-08,-7.10543e-15 -1.13211e-07,-7.10543e-15 -1.64964e-07,-7.10543e-15"></path><path d="M54.239,39.088l-2.66054e-07,0.000679414c0.000366839,-1.06213 0.230895,-2.11156 0.675715,-3.07606l-4.12279e-07,2.0992e-07c-4.94384,2.51725 -8.05753,7.5952 -8.059,13.143v3.356h0.044285l2.67913e-07,7.35412e-11c2.01998,0.00055441 3.81,-1.30117 4.432,-3.223l1.146,-3.536l2.37584e-08,-7.31935e-08c0.228657,-0.704432 0.985076,-1.09012 1.68951,-0.861467c0.00149824,0.000486326 0.00299563,0.000975292 0.00449215,0.0014669l3.85493e-07,1.36737e-07c2.40321,0.852436 4.90859,1.38337 7.45099,1.579l4.39334e-07,-2.97447e-10c-4.07531,0.00275925 -7.38124,-3.29869 -7.38399,-7.374c-2.16989e-06,-0.00320485 -2.25189e-06,-0.00640969 -2.45991e-07,-0.00961454Z"></path><path d="M77.73,52.511c0,0 -5.369,1.343 -9.4,-5.369c0,0 -0.671,3.356 -3.355,3.356c0,0 2.013,-4.027 -3.356,-4.027h-2.31383e-07c-4.07752,-1.78234e-07 -7.383,-3.30548 -7.383,-7.383c1.78234e-07,-4.07752 3.30548,-7.383 7.383,-7.383c0,0 10.739,0 15.437,9.4c0.00299978,-0.005 2.016,4.023 0.674,11.406Z"></path><path d="M56.9,61.635l-2.18419e-07,-2.08007e-07c2.2616,2.15378 5.8154,2.15378 8.077,4.16013e-07"></path><path d="M68.332,53.854l-3.73768e-08,-8.96466e-08c-0.465024,-1.11534 -1.74616,-1.64252 -2.8615,-1.1775c-0.532358,0.221958 -0.955542,0.645143 -1.1775,1.1775"></path><path d="M57.6,53.854l1.03763e-07,2.49223e-07c-0.46425,-1.11506 -1.74454,-1.64265 -2.8596,-1.1784c-0.532929,0.221882 -0.956518,0.645471 -1.1784,1.1784"></path><path d="M83.766,25.159l-4.89709e-09,1.80384e-08c0.0272451,-0.100358 0.105642,-0.178755 0.206,-0.206l3.884,-1.059l-8.34845e-09,2.34597e-09c0.156849,-0.0440756 0.24827,-0.206957 0.204194,-0.363806c-0.0278206,-0.0990033 -0.105191,-0.176373 -0.204194,-0.204194l-3.884,-1.059l-1.45716e-08,-3.91015e-09c-0.100825,-0.0270554 -0.179433,-0.106045 -0.206,-0.207l-1.06,-3.883l4.23866e-09,1.54316e-08c-0.0430065,-0.156573 -0.204797,-0.248636 -0.36137,-0.20563c-0.100017,0.0274721 -0.178158,0.105613 -0.20563,0.20563l-1.06,3.883l-2.49827e-10,9.57087e-10c-0.026379,0.101062 -0.105067,0.180132 -0.206,0.207l-3.883,1.06l4.41602e-09,-1.18216e-09c-0.156849,0.0419882 -0.249962,0.203177 -0.207974,0.360026c0.0271743,0.101511 0.106463,0.180799 0.207974,0.207974l3.883,1.058l5.48197e-09,1.55094e-09c0.100267,0.0283674 0.178633,0.106733 0.207,0.207l1.059,3.884l3.67922e-09,1.3093e-08c0.0440757,0.156849 0.206957,0.24827 0.363806,0.204194c0.0990033,-0.0278206 0.176373,-0.105191 0.204194,-0.204194Z"></path><path d="M30.268,77.793l-4.89706e-09,1.80384e-08c0.0272451,-0.100358 0.105642,-0.178755 0.206,-0.206l3.884,-1.059l4.61134e-09,-1.23445e-09c0.156849,-0.0419882 0.249962,-0.203177 0.207974,-0.360026c-0.0271743,-0.101511 -0.106463,-0.180799 -0.207974,-0.207974l-3.884,-1.06l-1.45716e-08,-3.91015e-09c-0.100825,-0.0270554 -0.179433,-0.106045 -0.206,-0.207l-1.06,-3.883l4.23867e-09,1.54316e-08c-0.0430065,-0.156573 -0.204797,-0.248636 -0.36137,-0.20563c-0.100017,0.0274721 -0.178158,0.105613 -0.20563,0.20563l-1.06,3.883l-2.49816e-10,9.57087e-10c-0.026379,0.101062 -0.105067,0.180132 -0.206,0.207l-3.883,1.06l4.41603e-09,-1.18217e-09c-0.156849,0.0419882 -0.249962,0.203177 -0.207974,0.360026c0.0271743,0.101511 0.106463,0.180799 0.207974,0.207974l3.883,1.058l5.48198e-09,1.55094e-09c0.100267,0.0283674 0.178633,0.106733 0.207,0.207l1.059,3.884l3.67921e-09,1.3093e-08c0.0440757,0.156849 0.206957,0.24827 0.363806,0.204194c0.0990033,-0.0278206 0.176373,-0.105191 0.204194,-0.204194Z"></path><path d="M91.86,51.042l-5.08407e-08,1.88628e-07c0.163076,-0.605042 0.635222,-1.07795 1.24,-1.242l1.685,-0.46l4.61134e-09,-1.23445e-09c0.156849,-0.0419882 0.249962,-0.203177 0.207974,-0.360026c-0.0271743,-0.101511 -0.106463,-0.180799 -0.207974,-0.207974l-1.685,-0.455l-5.97716e-08,-1.6346e-08c-0.603004,-0.164906 -1.07409,-0.635996 -1.239,-1.239l-0.461,-1.685l1.13027e-08,4.22216e-08c-0.0419881,-0.156849 -0.203177,-0.249962 -0.360026,-0.207974c-0.101511,0.0271743 -0.180799,0.106463 -0.207974,0.207974l-0.46,1.686l5.99517e-08,-2.19381e-07c-0.16467,0.602577 -0.635423,1.07333 -1.238,1.238l-1.685,0.46l3.03945e-09,-8.34859e-10c-0.156573,0.0430065 -0.248636,0.204797 -0.20563,0.36137c0.0274721,0.100017 0.105613,0.178158 0.20563,0.20563l1.685,0.46l-5.40871e-08,-1.48001e-08c0.602648,0.164905 1.07361,0.635486 1.239,1.238l0.459,1.685l-1.11518e-08,-4.16581e-08c0.0419881,0.156849 0.203177,0.249962 0.360026,0.207974c0.101511,-0.0271743 0.180799,-0.106463 0.207974,-0.207974Z"></path></g></svg>